<?xml version="1.0" standalone="no"?>
<!DOCTYPE svg PUBLIC "-//W3C//DTD SVG 20010904//EN"
 "http://www.w3.org/TR/2001/REC-SVG-20010904/DTD/svg10.dtd">
<svg version="1.0" xmlns="http://www.w3.org/2000/svg"
 width="100.000000pt" height="100.000000pt" viewBox="0 0 100.000000 100.000000"
 preserveAspectRatio="xMidYMid meet">
<metadata>
Created by potrace 1.10, written by Peter Selinger 2001-2011
</metadata>
<g transform="translate(0.000000,100.000000) scale(0.100000,-0.100000)"
fill="#000000" stroke="none">
<path d="M425 824 c-42 -101 -78 -171 -90 -179 -11 -7 -89 -41 -172 -76 -84
-35 -153 -66 -153 -69 0 -3 73 -36 162 -74 90 -38 168 -74 174 -80 6 -6 42
-84 80 -173 38 -90 71 -163 74 -163 3 0 36 73 74 162 38 90 74 168 80 174 6 6
84 42 174 80 89 38 162 71 162 74 0 3 -69 34 -153 69 -83 35 -161 69 -172 76
-12 8 -48 78 -90 179 -38 91 -72 166 -75 166 -3 0 -36 -75 -75 -166z m148
-265 c26 -32 22 -94 -8 -124 -34 -35 -96 -35 -130 0 -27 26 -34 80 -14 116 26
50 114 54 152 8z"/>
</g>
</svg>
